<svg width="40" height="38" viewBox="0 0 40 38" fill="none" xmlns="http://www.w3.org/2000/svg">
<rect x="0.5" y="16.3672" width="36.6084" height="21.6328" rx="6" fill="#CCDBFF"/>
<path fill-rule="evenodd" clip-rule="evenodd" d="M18.53 0.921851C16.2371 2.18922 11.8033 4.63992 4.23684 5.46409C4.01307 5.48847 3.83776 5.67274 3.82938 5.89767C3.64822 10.7596 3.3531 18.6803 5.88909 24.0795C8.15913 28.9125 12.2369 32.7567 17.9015 34.3533C18.4913 34.5195 19.1173 34.5195 19.7071 34.3533C25.3717 32.7567 29.4495 28.9125 31.7195 24.0795C34.2555 18.6803 33.9604 10.7597 33.7792 5.89768C33.7709 5.67274 33.5956 5.48847 33.3718 5.46409C25.8054 4.63992 21.3715 2.18922 19.0786 0.921851C18.9079 0.827482 18.7008 0.827482 18.53 0.921851Z" fill="#5570FF"/>
<circle cx="31.1797" cy="20.5708" r="8.75" fill="#A7BCFC"/>
<path d="M27.2861 20.8224L29.5871 23.1235C29.7824 23.3188 30.099 23.3188 30.2943 23.1235L35.7532 17.6646" stroke="#F9F9F9" stroke-width="2" stroke-linecap="round"/>
<path d="M18.8047 6.61646L18.8047 16.3672" stroke="#CCDBFF" stroke-width="1.2" stroke-linecap="round"/>
<path d="M18.8047 20.2417L18.8047 29.9925" stroke="#CCDBFF" stroke-width="1.2" stroke-linecap="round"/>
</svg>
